<?xml version="1.0" encoding="UTF-8" standalone="no"?>
<!-- Created with Inkscape (http://www.inkscape.org/) -->

<svg
   xmlns:dc="http://purl.org/dc/elements/1.1/"
   xmlns:cc="http://creativecommons.org/ns#"
   xmlns:rdf="http://www.w3.org/1999/02/22-rdf-syntax-ns#"
   xmlns:svg="http://www.w3.org/2000/svg"
   xmlns="http://www.w3.org/2000/svg"
   xmlns:sodipodi="http://sodipodi.sourceforge.net/DTD/sodipodi-0.dtd"
   xmlns:inkscape="http://www.inkscape.org/namespaces/inkscape"
   width="210mm"
   height="297mm"
   viewBox="0 0 210 297"
   version="1.1"
   id="svg8"
   inkscape:version="0.92.4 (5da689c313, 2019-01-14)"
   sodipodi:docname="abacate.svg">
  <defs
     id="defs2" />
  <sodipodi:namedview
     id="base"
     pagecolor="#ffffff"
     bordercolor="#666666"
     borderopacity="1.0"
     inkscape:pageopacity="0.0"
     inkscape:pageshadow="2"
     inkscape:zoom="0.98994949"
     inkscape:cx="430.5957"
     inkscape:cy="601.22862"
     inkscape:document-units="mm"
     inkscape:current-layer="layer1"
     showgrid="false"
     inkscape:window-width="1366"
     inkscape:window-height="745"
     inkscape:window-x="-8"
     inkscape:window-y="-8"
     inkscape:window-maximized="1" />
  <metadata
     id="metadata5">
    <rdf:RDF>
      <cc:Work
         rdf:about="">
        <dc:format>image/svg+xml</dc:format>
        <dc:type
           rdf:resource="http://purl.org/dc/dcmitype/StillImage" />
        <dc:title></dc:title>
      </cc:Work>
    </rdf:RDF>
  </metadata>
  <g
     inkscape:label="Camada 1"
     inkscape:groupmode="layer"
     id="layer1">
    <g
       id="g80"
       transform="matrix(0.26458333,0,0,0.26458333,70.51281,95.82477)">
      <g
         id="g20">
	<g
   id="g18">
		<path
   id="path10"
   d="m 207.558,127.728 c -12.021,-17.53 -26.837,-27.626 -40.693,-27.749 -0.039,0 -0.258,-0.002 -0.258,-0.002 -13.889,0.068 -28.754,10.172 -40.808,27.751 -11.142,16.248 -17.794,35.916 -17.794,52.612 0,22.521 6.2,39.662 18.428,50.947 10.007,9.236 23.866,14.133 40.088,14.18 0.029,0 0.285,0 0.314,0 16.222,-0.047 30.081,-4.943 40.089,-14.18 12.227,-11.285 18.427,-28.426 18.427,-50.947 0,-16.696 -6.651,-36.364 -17.793,-52.612 z m -40.88,102.742 c -19.941,-0.02 -43.673,-8.745 -43.673,-50.13 0,-28.678 24.469,-65.273 43.674,-65.363 8.634,0.045 19.549,8.17 28.508,21.234 9.354,13.64 15.164,30.55 15.164,44.129 0,41.385 -23.731,50.109 -43.673,50.13 z"
   inkscape:connector-curvature="0" />

		<path
   id="path12"
   d="M 272.712,169.389 C 269.042,146.105 255.347,119.724 240.847,91.794 231.295,73.394 221.418,54.368 215.05,36.926 204.922,9.188 187.226,-3.614 167.46,2.316 147.765,-3.737 112.854,0.245 97.478,36.576 90.5,53.065 78.851,70.214 66.518,88.37 48.029,115.591 28.91,143.737 25.064,171.701 c -5.311,38.608 1.848,69.481 21.273,91.763 26.467,30.355 66.936,34.888 88.703,34.888 0,0 12.433,0.184 17.785,-0.64 4.511,0.421 9.131,0.64 13.852,0.64 0.261,0 1.282,0 1.543,0 35.658,0 65.67,-12.137 84.506,-34.176 19.568,-22.893 26.292,-54.784 19.986,-94.787 z M 57.644,253.606 C 41.193,234.738 35.231,207.869 39.923,173.745 43.29,149.262 61.406,122.592 78.926,96.8 91.124,78.842 103.739,60.273 111.292,42.422 c 3.983,-9.411 9.403,-15.78 15.316,-19.997 -2.514,4.248 -4.783,9.086 -6.76,14.502 -6.368,17.442 -16.245,36.468 -25.797,54.868 -14.5,27.93 -28.195,54.311 -31.865,77.595 -6.306,40.003 0.418,71.895 19.985,94.787 4.449,5.207 9.53,9.852 15.154,13.924 -14.039,-4.216 -28.47,-11.637 -39.681,-24.495 z m 183.681,0.824 c -21.508,25.164 -55.033,28.922 -73.104,28.922 -0.261,0 -1.282,0 -1.543,0 -18.07,0 -51.596,-3.758 -73.103,-28.922 -16.588,-19.406 -22.163,-47.232 -16.571,-82.705 3.291,-20.874 17.053,-47.383 30.361,-73.02 9.771,-18.822 19.875,-38.284 26.574,-56.635 4.315,-11.821 13.935,-30.652 30.241,-25.05 3.053,1.049 4.779,0.617 6.539,0 16.272,-5.707 25.926,13.23 30.241,25.05 6.699,18.351 16.803,37.813 26.574,56.635 13.309,25.637 27.07,52.146 30.361,73.02 5.593,35.472 0.018,63.299 -16.57,82.705 z"
   inkscape:connector-curvature="0" />

		<g
   id="g16">
			<path
   id="path14"
   d="m 142.801,177.719 c -4.143,0 -7.5,-3.357 -7.5,-7.5 0,-11.099 11.344,-33.183 24.271,-37.423 3.938,-1.293 8.173,0.854 9.464,4.788 1.291,3.936 -0.852,8.173 -4.788,9.464 -5.472,1.795 -13.947,16.93 -13.947,23.171 0,4.143 -3.357,7.5 -7.5,7.5 z"
   inkscape:connector-curvature="0" />

		</g>

	</g>

</g>
      <g
         id="g22">
</g>
      <g
         id="g24">
</g>
      <g
         id="g26">
</g>
      <g
         id="g28">
</g>
      <g
         id="g30">
</g>
      <g
         id="g32">
</g>
      <g
         id="g34">
</g>
      <g
         id="g36">
</g>
      <g
         id="g38">
</g>
      <g
         id="g40">
</g>
      <g
         id="g42">
</g>
      <g
         id="g44">
</g>
      <g
         id="g46">
</g>
      <g
         id="g48">
</g>
      <g
         id="g50">
</g>
    </g>
    <path
       style="fill:#008000;fill-opacity:1;stroke-width:0.71428573"
       d="m 352.5572,635.70193 c -27.22722,-12.15675 -42.91439,-33.93918 -46.5318,-64.61177 -1.00993,-8.56332 -0.40427,-28.94967 1.10894,-37.32674 2.19162,-12.13263 8.57895,-27.17358 18.6181,-43.84201 3.07596,-5.10714 12.25956,-19.25 20.40801,-31.42857 18.63222,-27.84749 21.44827,-32.50087 30.0419,-49.64286 5.08781,-10.14883 7.987,-15.052 10.68365,-18.06845 2.03553,-2.27694 3.84527,-3.99558 4.02163,-3.81922 0.17637,0.17636 -0.30025,1.55717 -1.05913,3.06845 -0.75889,1.51129 -3.41427,7.89065 -5.90084,14.17636 -2.64259,6.68012 -12.56908,27.4546 -23.89106,50 -24.51396,48.81454 -29.05999,60.20607 -32.21073,80.71429 -1.78189,11.59838 -1.84415,36.4113 -0.11471,45.71428 2.00008,10.75875 4.6552,18.87237 9.11602,27.85715 4.95946,9.9891 9.58726,16.39631 17.40725,24.10042 3.0942,3.04834 5.18348,5.53302 4.64286,5.52151 -0.54062,-0.0115 -3.39366,-1.09728 -6.34009,-2.41284 z"
       id="path82"
       inkscape:connector-curvature="0"
       transform="scale(0.26458333)" />
    <path
       style="fill:#6cff00;fill-opacity:0.60301507;stroke-width:0.71428573"
       d="m 419.95145,644.59634 c -32.08856,-3.6921 -55.68916,-17.90892 -68.18395,-41.07345 -3.49492,-6.47935 -6.57025,-15.29885 -8.28274,-23.75341 -0.99598,-4.91713 -1.26197,-9.60299 -1.22804,-21.63379 0.087,-30.85177 2.88596,-39.29135 32.80903,-98.92857 11.72404,-23.36621 21.11989,-43.07668 23.83468,-50 7.01711,-17.89518 11.69666,-25.04447 18.72349,-28.60524 3.84371,-1.94775 9.4744,-2.33556 13.50585,-0.93019 1.81365,0.63225 3.17632,0.61177 5.90981,-0.0888 13.80334,-3.53769 21.6393,3.55922 31.5335,28.5594 3.07508,7.76996 11.40795,25.32097 22.04022,46.42198 25.17498,49.96271 30.43396,62.50822 33.38566,79.64285 5.07671,29.47035 0.90392,56.78517 -11.51008,75.34431 -12.01698,17.96559 -31.79044,29.67737 -57.41038,34.00407 -7.58225,1.28049 -27.82993,1.88045 -35.12705,1.04084 z m 21.6071,-37.18158 c 8.40445,-1.05383 13.47947,-2.50564 20.1169,-5.75484 19.92962,-9.75607 30.16747,-29.41186 30.16747,-57.91896 0,-18.59683 -5.45682,-35.79427 -16.72035,-52.69508 -10.43588,-15.65892 -22.49561,-25.35851 -35.24392,-28.34653 -18.64515,-4.37015 -40.18831,10.787 -54.39342,38.26964 -9.06514,17.53836 -12.51292,33.70718 -10.82141,50.74838 1.42238,14.3298 4.47311,23.94154 10.45484,32.93933 11.21681,16.87249 33.07778,25.68742 56.43989,22.75806 z"
       id="path84"
       inkscape:connector-curvature="0"
       transform="scale(0.26458333)" />
    <path
       style="fill:#800000;fill-opacity:0.60301508;stroke-width:0.71428573"
       d="m 425.0572,591.75495 c -21.88818,-3.59178 -33.21977,-17.70293 -35.0273,-43.61926 -1.46041,-20.93921 9.33134,-46.9479 25.70564,-61.95197 9.60928,-8.80516 17.16385,-10.53099 26.3404,-6.01743 8.65498,4.25702 18.49845,15.38085 25.15589,28.42797 6.99304,13.70482 9.98251,27.63091 8.87741,41.35445 -1.80299,22.39011 -11.56265,35.95221 -29.29871,40.71372 -4.76626,1.27958 -16.89984,1.88896 -21.75333,1.09252 z m -10.50681,-53.8592 c 1.12739,-1.12738 2.05864,-3.36252 2.72454,-6.53926 1.84701,-8.81134 8.32595,-18.97217 13.91573,-21.82387 7.66812,-3.91198 5.86399,-14.90442 -2.45408,-14.95247 -5.59886,-0.0324 -12.33512,5.09831 -18.19312,13.85674 -6.85873,10.25466 -10.54395,23.13399 -7.98667,27.91232 2.16085,4.03759 8.66399,4.87615 11.9936,1.54654 z"
       id="path4594"
       inkscape:connector-curvature="0"
       transform="scale(0.26458333)" />
    <path
       style="fill:#800000;fill-opacity:0.60301508;stroke-width:0.71428573"
       d="m 420.87039,590.62527 c -14.81974,-3.76643 -24.59578,-13.88112 -28.64029,-29.63243 -1.84182,-7.173 -2.2339,-21.19902 -0.80416,-28.76778 3.17568,-16.81139 10.94372,-31.78374 22.58932,-43.53929 10.60616,-10.70631 18.43145,-12.95318 28.09115,-8.06582 11.34077,5.7379 24.41176,23.44881 30.09609,40.77956 6.84043,20.85555 3.84532,45.13109 -7.15368,57.98096 -3.46671,4.05006 -9.2936,7.81715 -15.34863,9.92287 -4.40632,1.53237 -6.87329,1.8804 -14.95971,2.11049 -7.01153,0.1995 -10.83848,-0.0181 -13.87009,-0.78856 z m -6.08545,-53.06616 c 1.04261,-1.16678 2.26276,-3.79465 2.75659,-5.93696 2.12461,-9.21674 7.18824,-16.78578 15.73939,-23.52703 1.94353,-1.53217 2.3735,-2.41838 2.66989,-5.50293 0.32378,-3.36967 0.17163,-3.85829 -1.82236,-5.85228 -4.34045,-4.34046 -11.23884,-2.4145 -18.49081,5.16243 -9.00432,9.40781 -15.74579,25.62276 -13.71327,32.98393 1.52722,5.53114 8.93138,7.06996 12.86057,2.67284 z"
       id="path4596"
       inkscape:connector-curvature="0"
       transform="scale(0.26458333)" />
    <path
       style="fill:#642111;fill-opacity:0.72361809;stroke-width:0.71428573"
       d="m 417.41864,589.27504 c -11.85684,-4.18502 -19.73648,-12.41431 -23.94921,-25.01191 -1.8316,-5.47717 -1.9301,-6.47785 -1.93892,-19.69886 -0.009,-13.20399 0.0935,-14.263 1.96698,-20.35715 4.36109,-14.18613 12.50298,-27.55021 22.51308,-36.95294 9.52067,-8.943 16.85665,-10.86644 25.43574,-6.66908 8.3827,4.10127 18.53351,15.66202 25.20954,28.71112 6.79562,13.28285 9.18127,24.04994 8.56244,38.64473 -0.98127,23.14302 -10.66574,37.24465 -28.82686,41.97502 -2.75291,0.71705 -7.48528,1.07183 -14.16287,1.0618 -8.69222,-0.0131 -10.66562,-0.23994 -14.80992,-1.70273 z m -3.53301,-50.80755 c 1.56405,-1.31606 2.6695,-3.41478 4.0445,-7.67857 2.83063,-8.77763 5.0663,-12.37931 11.9485,-19.24912 6.16726,-6.15615 6.25,-6.28533 6.25,-9.75793 0,-3.05283 -0.29123,-3.76424 -2.19766,-5.36839 -2.62053,-2.20503 -7.32164,-2.50385 -10.83209,-0.68853 -8.84033,4.57152 -19.13027,20.23894 -21.31259,32.4505 -0.77008,4.30911 -0.72049,5.06828 0.49307,7.54853 2.33229,4.76664 7.69532,6.03436 11.60627,2.74351 z"
       id="path4598"
       inkscape:connector-curvature="0"
       transform="scale(0.26458333)" />
    <path
       style="fill:#3b871b;fill-opacity:0.72361809;stroke-width:0.71428573"
       d="m 349.99388,633.93094 c -22.12505,-10.90842 -35.46503,-27.42688 -41.5981,-51.50953 -1.82935,-7.18331 -1.90997,-8.28419 -1.90914,-26.07143 9.4e-4,-20.31723 0.44256,-23.63776 4.79735,-36.07143 5.06864,-14.47181 11.55191,-25.81534 35.48768,-62.09149 17.81618,-27.0015 21.22549,-32.63982 30.04378,-49.68636 3.24941,-6.28138 6.79748,-12.70996 7.8846,-14.28571 1.84815,-2.67885 5.00001,-5.99331 5.00001,-5.25795 0,0.65892 -7.75806,19.03227 -11.26494,26.67865 -1.98194,4.32143 -9.50561,19.75 -16.71927,34.28572 -32.76806,66.02854 -35.16487,73.42729 -35.17142,108.57143 -0.003,16.54599 0.17002,19.36864 1.58723,25.88119 2.00545,9.21567 4.34886,15.77901 8.86655,24.83309 4.47404,8.96659 8.6229,14.82145 15.81736,22.32143 3.10904,3.24107 5.33894,5.89286 4.95532,5.89286 -0.38361,0 -3.88327,-1.57071 -7.77701,-3.49047 z"
       id="path4600"
       inkscape:connector-curvature="0"
       transform="scale(0.26458333)" />
  </g>
</svg>
